<?xml version="1.0" encoding="UTF-8"?>
<svg id="Calque_2" data-name="Calque 2" xmlns="http://www.w3.org/2000/svg" viewBox="0 0 400 65.29">
  <defs>
    <style>
      .cls-1 {
        fill: #6d4cf3;
        stroke-width: 0px;
      }
    </style>
  </defs>
  <g id="Calque_1-2" data-name="Calque 1">
    <g>
      <g>
        <path class="cls-1" d="m118.02,23.36v8.85c0,.28-.35.63-.77.63h-21.89v22.94h-9.9c-.42,0-.77-.35-.77-.63V.63c0-.28.35-.63.77-.63h25.73v10.11h-15.83v12.62h21.89c.42,0,.77.28.77.63Z"/>
        <path class="cls-1" d="m164.88,55.78h-9.62c-.21,0-.56-.14-.63-.42l-11.02-31.1-10.88,31.1c-.07.28-.42.42-.7.42h-9.55c-.63,0-.84-.42-.7-.84L142.92.42c.21-.56,1.19-.56,1.39,0l21.2,54.52c.14.42-.14.84-.63.84Z"/>
        <path class="cls-1" d="m216.69.63v54.52c0,.28-.28.63-.77.63h-9.2c-.14,0-.56-.07-.63-.21l-25.66-36.75v23.57h-10.67V.63c0-.28.35-.63.7-.63h9.27c.14,0,.56.07.63.21l25.73,36.75V.63c0-.28.35-.63.84-.63h8.99c.49,0,.77.35.77.63Z"/>
        <path class="cls-1" d="m220.38.63c0-.28.35-.63.77-.63h32c.49,0,.77.35.77.63v8.3c0,.35-.28.63-.77.63h-32c-.42,0-.77-.28-.77-.63V.63Zm21.27,55.15h-8.99c-.49,0-.77-.35-.77-.63V20.22h10.6v34.93c0,.28-.35.63-.84.63Z"/>
        <path class="cls-1" d="m295.06,55.78h-9.97c-.21,0-.63-.21-.7-.42l-10.18-22.1h-6v21.89c0,.28-.35.63-.77.63h-9.13c-.35,0-.7-.35-.7-.63V23.01h18.76c2.3,0,8.23-.28,8.23-6.41s-6.55-6.48-8.23-6.48h-18.76V.63c0-.28.35-.63.7-.63h18.06c3.14,0,18.83.14,18.83,16.59,0,8.51-4.67,12.97-10.25,14.99,3.49,7.88,7.25,15.55,10.74,23.29.21.49-.07.91-.63.91Z"/>
        <path class="cls-1" d="m321.07,46.86v8.3c0,.28-.28.63-.77.63h-21.96c-.42,0-.77-.35-.77-.63v-8.3c0-.35.35-.63.77-.63h5.72V0h10.67v46.23h5.58c.49,0,.77.28.77.63Z"/>
        <path class="cls-1" d="m323.37.63c0-.28.35-.63.77-.63h18.2s18.9-.42,18.9,15.97c0,6.48-3.49,10.18-7.74,11.92,8.86,3,8.51,11.64,8.51,11.64,0,15.55-15.9,16.25-19.66,16.25h-8.3v-10.18h8.3c3.49,0,9-.98,9-6.34,0-6.55-9-6.14-9-6.14h-18.97V.63Zm18.97,9.34h-8.37v12.76h8.37s8.23,0,8.23-6.14c0-6.69-8.23-6.62-8.23-6.62Z"/>
        <path class="cls-1" d="m366.67,55.15V.63c0-.28.35-.63.77-.63h25.73v10.11h-15.83v12.62h21.89c.42,0,.77.28.77.63v8.85c0,.28-.35.63-.77.63h-21.89v12.55h15.83v10.39h-25.73c-.42,0-.77-.35-.77-.63Z"/>
      </g>
      <g>
        <path class="cls-1" d="m47.25,20.64l-8.37.07h-1.67s-20.11.19-20.11.19c-.24,0-.54-.27-.54-.65l-.07-7.09c0-.38.3-.6.54-.61l20.18-.17h1.67s8.29-.09,8.29-.09l.07,8.34Z"/>
        <path class="cls-1" d="m26.4,0v10.11h-15.73v12.62h14.06v10.11h-14.06v22.93h-.41L.46,38.8l-.46-.79V.62c0-.28.35-.62.76-.62h25.64Z"/>
        <path class="cls-1" d="m37.21,22.73l-.04,41.81c0,.33-.35.75-.84.75h-8.99c-.49,0-.77-.41-.77-.75l-.17-41.81h10.81Z"/>
        <path class="cls-1" d="m63.48.62v37.85l-.19.33-9.8,16.97h-.68v-22.93h-13.93v-10.11h13.93v-12.62h-15.82V0h25.72c.42,0,.77.35.77.62Z"/>
      </g>
    </g>
  </g>
</svg>